<svg xmlns="http://www.w3.org/2000/svg" viewBox="0 0 512 512" width="512" height="512">
    <defs>
        <linearGradient id="grad1" x1="0%" y1="0%" x2="100%" y2="100%">
            <stop offset="0%" style="stop-color:#3B82F6;stop-opacity:1" /> <!-- blue-500 -->
            <stop offset="100%" style="stop-color:#2DD4BF;stop-opacity:1" /> <!-- teal-400 -->
        </linearGradient>
        <filter id="shadow" x="-5%" y="-5%" width="120%" height="120%">
            <feDropShadow dx="0" dy="15" stdDeviation="20" flood-color="#3b82f6" flood-opacity="0.3" />
        </filter>
    </defs>
    <!-- Background square matches exactly the gradient div -->
    <rect x="40" y="40" width="432" height="432" rx="110" ry="110" fill="url(#grad1)" filter="url(#shadow)"/>
    
    <!-- Phosphor CalendarPlus inside the rect, centered & scaled up -->
    <g transform="translate(128, 128) scale(1)">
        <svg xmlns="http://www.w3.org/2000/svg" viewBox="0 0 256 256" width="256" height="256" fill="white">
            <path d="M208,32H184V24a8,8,0,0,0-16,0v8H88V24a8,8,0,0,0-16,0v8H48A16,16,0,0,0,32,48V208a16,16,0,0,0,16,16H208a16,16,0,0,0,16-16V48A16,16,0,0,0,208,32ZM72,48v8a8,8,0,0,0,16,0V48h80v8a8,8,0,0,0,16,0V48h24V80H48V48ZM208,208H48V96H208V208Zm-40-56a8,8,0,0,1-8,8H136v24a8,8,0,0,1-16,0V160H96a8,8,0,0,1,0-16h24V120a8,8,0,0,1,16,0v24h24A8,8,0,0,1,168,152Z"></path>
        </svg>
    </g>
</svg>
